<svg xmlns="http://www.w3.org/2000/svg" width="1920" height="1080"><path d="M113,1331L-287,1317L300,1355Z" fill="#202020" stroke="#202020" stroke-width="1.51"/><path d="M-81,-315L127,-288L583,-298Z" fill="#333333" stroke="#333333" stroke-width="1.51"/><path d="M1150,-242L1351,-226L1634,-262Z" fill="#282828" stroke="#282828" stroke-width="1.51"/><path d="M-81,-315L583,-298L2018,-337Z" fill="#2e2e2e" stroke="#2e2e2e" stroke-width="1.51"/><path d="M1150,-242L1634,-262L2018,-337Z" fill="#272727" stroke="#272727" stroke-width="1.51"/><path d="M735,-282L1150,-242L2018,-337Z" fill="#292929" stroke="#292929" stroke-width="1.51"/><path d="M583,-298L735,-282L2018,-337Z" fill="#2b2b2b" stroke="#2b2b2b" stroke-width="1.51"/><path d="M2145,496L2034,532L2220,757Z" fill="#181818" stroke="#181818" stroke-width="1.51"/><path d="M2034,532L1954,728L2220,757Z" fill="#171717" stroke="#171717" stroke-width="1.51"/><path d="M1943,958L2179,987L2220,757Z" fill="#141414" stroke="#141414" stroke-width="1.51"/><path d="M1954,728L1943,958L2220,757Z" fill="#161616" stroke="#161616" stroke-width="1.51"/><path d="M2196,358L2145,496L2220,757Z" fill="#181818" stroke="#181818" stroke-width="1.51"/><path d="M2179,987L2192,1131L2220,757Z" fill="#131313" stroke="#131313" stroke-width="1.51"/><path d="M2192,1131L2026,1125L2221,1331Z" fill="#101010" stroke="#101010" stroke-width="1.51"/><path d="M2220,757L2192,1131L2221,1331Z" fill="#111111" stroke="#111111" stroke-width="1.51"/><path d="M1999,80L2207,172L2235,-18Z" fill="#1e1e1e" stroke="#1e1e1e" stroke-width="1.51"/><path d="M2046,-61L1999,80L2235,-18Z" fill="#202020" stroke="#202020" stroke-width="1.51"/><path d="M2131,-247L2046,-61L2235,-18Z" fill="#212121" stroke="#212121" stroke-width="1.51"/><path d="M2196,358L2220,757L2235,-18Z" fill="#1a1a1a" stroke="#1a1a1a" stroke-width="1.51"/><path d="M2207,172L2196,358L2235,-18Z" fill="#1d1d1d" stroke="#1d1d1d" stroke-width="1.51"/><path d="M1926,326L2196,358L2207,172Z" fill="#1c1c1c" stroke="#1c1c1c" stroke-width="1.51"/><path d="M2026,1125L1939,1417L2221,1331Z" fill="#101010" stroke="#101010" stroke-width="1.51"/><path d="M2179,987L2026,1125L2192,1131Z" fill="#121212" stroke="#121212" stroke-width="1.51"/><path d="M1999,80L1926,326L2207,172Z" fill="#1e1e1e" stroke="#1e1e1e" stroke-width="1.51"/><path d="M1926,326L2145,496L2196,358Z" fill="#1b1b1b" stroke="#1b1b1b" stroke-width="1.51"/><path d="M1926,326L2034,532L2145,496Z" fill="#1a1a1a" stroke="#1a1a1a" stroke-width="1.51"/><path d="M1943,958L2026,1125L2179,987Z" fill="#131313" stroke="#131313" stroke-width="1.51"/><path d="M2018,-337L2046,-61L2131,-247Z" fill="#222222" stroke="#222222" stroke-width="1.51"/><path d="M1828,178L1926,326L1999,80Z" fill="#1e1e1e" stroke="#1e1e1e" stroke-width="1.51"/><path d="M1634,-262L1831,-223L2018,-337Z" fill="#252525" stroke="#252525" stroke-width="1.51"/><path d="M1782,1155L1939,1417L2026,1125Z" fill="#121212" stroke="#121212" stroke-width="1.51"/><path d="M1830,505L1954,728L2034,532Z" fill="#1a1a1a" stroke="#1a1a1a" stroke-width="1.51"/><path d="M1926,326L1830,505L2034,532Z" fill="#1b1b1b" stroke="#1b1b1b" stroke-width="1.51"/><path d="M1718,-38L1999,80L2046,-61Z" fill="#212121" stroke="#212121" stroke-width="1.51"/><path d="M1831,-223L1718,-38L2046,-61Z" fill="#232323" stroke="#232323" stroke-width="1.51"/><path d="M2018,-337L1831,-223L2046,-61Z" fill="#232323" stroke="#232323" stroke-width="1.51"/><path d="M1943,958L1782,1155L2026,1125Z" fill="#141414" stroke="#141414" stroke-width="1.51"/><path d="M1782,1155L1801,1416L1939,1417Z" fill="#111111" stroke="#111111" stroke-width="1.51"/><path d="M1821,961L1782,1155L1943,958Z" fill="#151515" stroke="#151515" stroke-width="1.51"/><path d="M1821,961L1943,958L1954,728Z" fill="#161616" stroke="#161616" stroke-width="1.51"/><path d="M1747,767L1821,961L1954,728Z" fill="#171717" stroke="#171717" stroke-width="1.51"/><path d="M1718,-38L1828,178L1999,80Z" fill="#202020" stroke="#202020" stroke-width="1.51"/><path d="M1575,1340L1317,1407L1801,1416Z" fill="#131313" stroke="#131313" stroke-width="1.51"/><path d="M1830,505L1747,767L1954,728Z" fill="#191919" stroke="#191919" stroke-width="1.51"/><path d="M1728,352L1830,505L1926,326Z" fill="#1d1d1d" stroke="#1d1d1d" stroke-width="1.51"/><path d="M1828,178L1728,352L1926,326Z" fill="#1e1e1e" stroke="#1e1e1e" stroke-width="1.51"/><path d="M1782,1155L1575,1340L1801,1416Z" fill="#121212" stroke="#121212" stroke-width="1.51"/><path d="M1522,969L1782,1155L1821,961Z" fill="#161616" stroke="#161616" stroke-width="1.51"/><path d="M1718,-38L1557,81L1828,178Z" fill="#222222" stroke="#222222" stroke-width="1.51"/><path d="M1632,601L1747,767L1830,505Z" fill="#1a1a1a" stroke="#1a1a1a" stroke-width="1.51"/><path d="M1728,352L1632,601L1830,505Z" fill="#1c1c1c" stroke="#1c1c1c" stroke-width="1.51"/><path d="M1616,-93L1718,-38L1831,-223Z" fill="#242424" stroke="#242424" stroke-width="1.51"/><path d="M1634,-262L1616,-93L1831,-223Z" fill="#252525" stroke="#252525" stroke-width="1.51"/><path d="M1747,767L1522,969L1821,961Z" fill="#181818" stroke="#181818" stroke-width="1.51"/><path d="M1557,81L1554,319L1728,352Z" fill="#202020" stroke="#202020" stroke-width="1.51"/><path d="M1557,81L1728,352L1828,178Z" fill="#202020" stroke="#202020" stroke-width="1.51"/><path d="M1522,969L1521,1187L1782,1155Z" fill="#161616" stroke="#161616" stroke-width="1.51"/><path d="M1521,1187L1575,1340L1782,1155Z" fill="#141414" stroke="#141414" stroke-width="1.51"/><path d="M1554,319L1632,601L1728,352Z" fill="#1e1e1e" stroke="#1e1e1e" stroke-width="1.51"/><path d="M1632,601L1572,708L1747,767Z" fill="#1a1a1a" stroke="#1a1a1a" stroke-width="1.51"/><path d="M1572,708L1522,969L1747,767Z" fill="#191919" stroke="#191919" stroke-width="1.51"/><path d="M1616,-93L1557,81L1718,-38Z" fill="#232323" stroke="#232323" stroke-width="1.51"/><path d="M-116,1312L-287,1317L113,1331Z" fill="#222222" stroke="#222222" stroke-width="1.51"/><path d="M1388,723L1522,969L1572,708Z" fill="#1a1a1a" stroke="#1a1a1a" stroke-width="1.51"/><path d="M1311,497L1388,723L1632,601Z" fill="#1c1c1c" stroke="#1c1c1c" stroke-width="1.51"/><path d="M1377,395L1311,497L1632,601Z" fill="#1e1e1e" stroke="#1e1e1e" stroke-width="1.51"/><path d="M1554,319L1377,395L1632,601Z" fill="#1e1e1e" stroke="#1e1e1e" stroke-width="1.51"/><path d="M1351,-226L1616,-93L1634,-262Z" fill="#262626" stroke="#262626" stroke-width="1.51"/><path d="M1388,723L1572,708L1632,601Z" fill="#1b1b1b" stroke="#1b1b1b" stroke-width="1.51"/><path d="M735,-282L974,-224L1150,-242Z" fill="#2c2c2c" stroke="#2c2c2c" stroke-width="1.51"/><path d="M1388,723L1379,928L1522,969Z" fill="#191919" stroke="#191919" stroke-width="1.51"/><path d="M1307,-59L1557,81L1616,-93Z" fill="#252525" stroke="#252525" stroke-width="1.51"/><path d="M1351,-226L1307,-59L1616,-93Z" fill="#262626" stroke="#262626" stroke-width="1.51"/><path d="M490,1344L300,1355L802,1396Z" fill="#1c1c1c" stroke="#1c1c1c" stroke-width="1.51"/><path d="M1156,1368L954,1402L1317,1407Z" fill="#171717" stroke="#171717" stroke-width="1.51"/><path d="M1361,1119L1521,1187L1522,969Z" fill="#171717" stroke="#171717" stroke-width="1.51"/><path d="M1313,143L1554,319L1557,81Z" fill="#222222" stroke="#222222" stroke-width="1.51"/><path d="M1521,1187L1317,1407L1575,1340Z" fill="#141414" stroke="#141414" stroke-width="1.51"/><path d="M1313,143L1377,395L1554,319Z" fill="#212121" stroke="#212121" stroke-width="1.51"/><path d="M1307,-59L1313,143L1557,81Z" fill="#242424" stroke="#242424" stroke-width="1.51"/><path d="M1361,1119L1317,1407L1521,1187Z" fill="#161616" stroke="#161616" stroke-width="1.51"/><path d="M1379,928L1361,1119L1522,969Z" fill="#181818" stroke="#181818" stroke-width="1.51"/><path d="M1117,584L1152,728L1311,497Z" fill="#1f1f1f" stroke="#1f1f1f" stroke-width="1.51"/><path d="M1307,-59L1220,73L1313,143Z" fill="#252525" stroke="#252525" stroke-width="1.51"/><path d="M1184,1147L1156,1368L1317,1407Z" fill="#171717" stroke="#171717" stroke-width="1.51"/><path d="M1184,1147L1317,1407L1361,1119Z" fill="#171717" stroke="#171717" stroke-width="1.51"/><path d="M1313,143L1225,378L1377,395Z" fill="#222222" stroke="#222222" stroke-width="1.51"/><path d="M1162,1006L1361,1119L1379,928Z" fill="#191919" stroke="#191919" stroke-width="1.51"/><path d="M1152,728L1162,1006L1379,928Z" fill="#1b1b1b" stroke="#1b1b1b" stroke-width="1.51"/><path d="M1152,728L1379,928L1388,723Z" fill="#1b1b1b" stroke="#1b1b1b" stroke-width="1.51"/><path d="M1311,497L1152,728L1388,723Z" fill="#1d1d1d" stroke="#1d1d1d" stroke-width="1.51"/><path d="M1225,378L1311,497L1377,395Z" fill="#202020" stroke="#202020" stroke-width="1.51"/><path d="M1150,-242L1307,-59L1351,-226Z" fill="#282828" stroke="#282828" stroke-width="1.51"/><path d="M1162,1006L1184,1147L1361,1119Z" fill="#191919" stroke="#191919" stroke-width="1.51"/><path d="M1150,-242L1124,-110L1307,-59Z" fill="#292929" stroke="#292929" stroke-width="1.51"/><path d="M1220,73L1225,378L1313,143Z" fill="#242424" stroke="#242424" stroke-width="1.51"/><path d="M1225,378L1117,584L1311,497Z" fill="#202020" stroke="#202020" stroke-width="1.51"/><path d="M1220,73L969,168L1225,378Z" fill="#252525" stroke="#252525" stroke-width="1.51"/><path d="M1124,-110L1220,73L1307,-59Z" fill="#272727" stroke="#272727" stroke-width="1.51"/><path d="M1152,728L1018,939L1162,1006Z" fill="#1c1c1c" stroke="#1c1c1c" stroke-width="1.51"/><path d="M898,378L999,510L1225,378Z" fill="#222222" stroke="#222222" stroke-width="1.51"/><path d="M969,168L898,378L1225,378Z" fill="#242424" stroke="#242424" stroke-width="1.51"/><path d="M999,510L1117,584L1225,378Z" fill="#212121" stroke="#212121" stroke-width="1.51"/><path d="M1124,-110L969,168L1220,73Z" fill="#272727" stroke="#272727" stroke-width="1.51"/><path d="M951,777L1018,939L1152,728Z" fill="#1d1d1d" stroke="#1d1d1d" stroke-width="1.51"/><path d="M968,1130L954,1402L1156,1368Z" fill="#191919" stroke="#191919" stroke-width="1.51"/><path d="M1162,1006L968,1130L1184,1147Z" fill="#1a1a1a" stroke="#1a1a1a" stroke-width="1.51"/><path d="M968,1130L1156,1368L1184,1147Z" fill="#191919" stroke="#191919" stroke-width="1.51"/><path d="M909,-131L969,168L1124,-110Z" fill="#292929" stroke="#292929" stroke-width="1.51"/><path d="M974,-224L1124,-110L1150,-242Z" fill="#2a2a2a" stroke="#2a2a2a" stroke-width="1.51"/><path d="M1018,939L968,1130L1162,1006Z" fill="#1b1b1b" stroke="#1b1b1b" stroke-width="1.51"/><path d="M1117,584L951,777L1152,728Z" fill="#1f1f1f" stroke="#1f1f1f" stroke-width="1.51"/><path d="M999,510L951,777L1117,584Z" fill="#202020" stroke="#202020" stroke-width="1.51"/><path d="M974,-224L909,-131L1124,-110Z" fill="#2a2a2a" stroke="#2a2a2a" stroke-width="1.51"/><path d="M703,915L702,1098L968,1130Z" fill="#1d1d1d" stroke="#1d1d1d" stroke-width="1.51"/><path d="M802,1396L954,1402L968,1130Z" fill="#1a1a1a" stroke="#1a1a1a" stroke-width="1.51"/><path d="M909,-131L768,-24L969,168Z" fill="#292929" stroke="#292929" stroke-width="1.51"/><path d="M697,556L796,756L999,510Z" fill="#222222" stroke="#222222" stroke-width="1.51"/><path d="M796,756L951,777L999,510Z" fill="#202020" stroke="#202020" stroke-width="1.51"/><path d="M703,915L968,1130L1018,939Z" fill="#1d1d1d" stroke="#1d1d1d" stroke-width="1.51"/><path d="M951,777L703,915L1018,939Z" fill="#1e1e1e" stroke="#1e1e1e" stroke-width="1.51"/><path d="M796,756L703,915L951,777Z" fill="#1f1f1f" stroke="#1f1f1f" stroke-width="1.51"/><path d="M898,378L697,556L999,510Z" fill="#232323" stroke="#232323" stroke-width="1.51"/><path d="M732,189L756,351L898,378Z" fill="#262626" stroke="#262626" stroke-width="1.51"/><path d="M702,1098L802,1396L968,1130Z" fill="#1b1b1b" stroke="#1b1b1b" stroke-width="1.51"/><path d="M732,189L898,378L969,168Z" fill="#272727" stroke="#272727" stroke-width="1.51"/><path d="M768,-24L732,189L969,168Z" fill="#282828" stroke="#282828" stroke-width="1.51"/><path d="M735,-282L909,-131L974,-224Z" fill="#2c2c2c" stroke="#2c2c2c" stroke-width="1.51"/><path d="M756,351L697,556L898,378Z" fill="#252525" stroke="#252525" stroke-width="1.51"/><path d="M735,-282L768,-24L909,-131Z" fill="#2c2c2c" stroke="#2c2c2c" stroke-width="1.51"/><path d="M735,-282L596,-13L768,-24Z" fill="#2d2d2d" stroke="#2d2d2d" stroke-width="1.51"/><path d="M596,-13L732,189L768,-24Z" fill="#2b2b2b" stroke="#2b2b2b" stroke-width="1.51"/><path d="M564,779L703,915L796,756Z" fill="#212121" stroke="#212121" stroke-width="1.51"/><path d="M697,556L564,779L796,756Z" fill="#222222" stroke="#222222" stroke-width="1.51"/><path d="M702,1098L551,1138L802,1396Z" fill="#1d1d1d" stroke="#1d1d1d" stroke-width="1.51"/><path d="M551,1138L490,1344L802,1396Z" fill="#1c1c1c" stroke="#1c1c1c" stroke-width="1.51"/><path d="M583,-298L596,-13L735,-282Z" fill="#2e2e2e" stroke="#2e2e2e" stroke-width="1.51"/><path d="M607,997L702,1098L703,915Z" fill="#1f1f1f" stroke="#1f1f1f" stroke-width="1.51"/><path d="M596,-13L532,117L732,189Z" fill="#2a2a2a" stroke="#2a2a2a" stroke-width="1.51"/><path d="M526,489L697,556L756,351Z" fill="#252525" stroke="#252525" stroke-width="1.51"/><path d="M732,189L500,279L756,351Z" fill="#282828" stroke="#282828" stroke-width="1.51"/><path d="M500,279L526,489L756,351Z" fill="#272727" stroke="#272727" stroke-width="1.51"/><path d="M127,-288L402,-225L583,-298Z" fill="#323232" stroke="#323232" stroke-width="1.51"/><path d="M532,117L500,279L732,189Z" fill="#2a2a2a" stroke="#2a2a2a" stroke-width="1.51"/><path d="M526,489L564,779L697,556Z" fill="#242424" stroke="#242424" stroke-width="1.51"/><path d="M607,997L551,1138L702,1098Z" fill="#1e1e1e" stroke="#1e1e1e" stroke-width="1.51"/><path d="M564,779L607,997L703,915Z" fill="#202020" stroke="#202020" stroke-width="1.51"/><path d="M526,489L294,725L564,779Z" fill="#252525" stroke="#252525" stroke-width="1.51"/><path d="M583,-298L402,-225L596,-13Z" fill="#2f2f2f" stroke="#2f2f2f" stroke-width="1.51"/><path d="M402,-225L372,-77L596,-13Z" fill="#2f2f2f" stroke="#2f2f2f" stroke-width="1.51"/><path d="M564,779L342,961L607,997Z" fill="#212121" stroke="#212121" stroke-width="1.51"/><path d="M342,961L551,1138L607,997Z" fill="#202020" stroke="#202020" stroke-width="1.51"/><path d="M347,489L294,725L526,489Z" fill="#262626" stroke="#262626" stroke-width="1.51"/><path d="M372,-77L532,117L596,-13Z" fill="#2d2d2d" stroke="#2d2d2d" stroke-width="1.51"/><path d="M500,279L384,351L526,489Z" fill="#282828" stroke="#282828" stroke-width="1.51"/><path d="M336,1194L490,1344L551,1138Z" fill="#1e1e1e" stroke="#1e1e1e" stroke-width="1.51"/><path d="M294,725L342,961L564,779Z" fill="#232323" stroke="#232323" stroke-width="1.51"/><path d="M342,961L336,1194L551,1138Z" fill="#202020" stroke="#202020" stroke-width="1.51"/><path d="M384,351L347,489L526,489Z" fill="#282828" stroke="#282828" stroke-width="1.51"/><path d="M293,136L500,279L532,117Z" fill="#2b2b2b" stroke="#2b2b2b" stroke-width="1.51"/><path d="M372,-77L293,136L532,117Z" fill="#2d2d2d" stroke="#2d2d2d" stroke-width="1.51"/><path d="M336,1194L300,1355L490,1344Z" fill="#1e1e1e" stroke="#1e1e1e" stroke-width="1.51"/><path d="M293,136L384,351L500,279Z" fill="#2a2a2a" stroke="#2a2a2a" stroke-width="1.51"/><path d="M294,725L167,908L342,961Z" fill="#242424" stroke="#242424" stroke-width="1.51"/><path d="M187,1179L336,1194L342,961Z" fill="#212121" stroke="#212121" stroke-width="1.51"/><path d="M293,136L173,284L384,351Z" fill="#2b2b2b" stroke="#2b2b2b" stroke-width="1.51"/><path d="M159,-74L372,-77L402,-225Z" fill="#303030" stroke="#303030" stroke-width="1.51"/><path d="M127,-288L159,-74L402,-225Z" fill="#323232" stroke="#323232" stroke-width="1.51"/><path d="M159,-74L166,93L293,136Z" fill="#2f2f2f" stroke="#2f2f2f" stroke-width="1.51"/><path d="M122,529L294,725L347,489Z" fill="#282828" stroke="#282828" stroke-width="1.51"/><path d="M159,-74L293,136L372,-77Z" fill="#2f2f2f" stroke="#2f2f2f" stroke-width="1.51"/><path d="M173,284L347,489L384,351Z" fill="#2a2a2a" stroke="#2a2a2a" stroke-width="1.51"/><path d="M187,1179L300,1355L336,1194Z" fill="#1f1f1f" stroke="#1f1f1f" stroke-width="1.51"/><path d="M167,908L187,1179L342,961Z" fill="#222222" stroke="#222222" stroke-width="1.51"/><path d="M173,284L122,529L347,489Z" fill="#2a2a2a" stroke="#2a2a2a" stroke-width="1.51"/><path d="M166,93L173,284L293,136Z" fill="#2d2d2d" stroke="#2d2d2d" stroke-width="1.51"/><path d="M86,717L167,908L294,725Z" fill="#262626" stroke="#262626" stroke-width="1.51"/><path d="M122,529L86,717L294,725Z" fill="#272727" stroke="#272727" stroke-width="1.51"/><path d="M187,1179L113,1331L300,1355Z" fill="#202020" stroke="#202020" stroke-width="1.51"/><path d="M127,-288L-27,-104L159,-74Z" fill="#333333" stroke="#333333" stroke-width="1.51"/><path d="M159,-74L-27,-104L166,93Z" fill="#313131" stroke="#313131" stroke-width="1.51"/><path d="M-4,539L122,529L173,284Z" fill="#2a2a2a" stroke="#2a2a2a" stroke-width="1.51"/><path d="M-95,290L-4,539L173,284Z" fill="#2c2c2c" stroke="#2c2c2c" stroke-width="1.51"/><path d="M166,93L-87,101L173,284Z" fill="#2f2f2f" stroke="#2f2f2f" stroke-width="1.51"/><path d="M-87,101L-95,290L173,284Z" fill="#2e2e2e" stroke="#2e2e2e" stroke-width="1.51"/><path d="M-80,1189L113,1331L187,1179Z" fill="#212121" stroke="#212121" stroke-width="1.51"/><path d="M167,908L-110,1007L187,1179Z" fill="#242424" stroke="#242424" stroke-width="1.51"/><path d="M-110,1007L-80,1189L187,1179Z" fill="#232323" stroke="#232323" stroke-width="1.51"/><path d="M-27,-104L-87,101L166,93Z" fill="#313131" stroke="#313131" stroke-width="1.51"/><path d="M86,717L-41,715L167,908Z" fill="#272727" stroke="#272727" stroke-width="1.51"/><path d="M-4,539L86,717L122,529Z" fill="#292929" stroke="#292929" stroke-width="1.51"/><path d="M-41,715L-110,1007L167,908Z" fill="#262626" stroke="#262626" stroke-width="1.51"/><path d="M-81,-315L-27,-104L127,-288Z" fill="#343434" stroke="#343434" stroke-width="1.51"/><path d="M-4,539L-41,715L86,717Z" fill="#292929" stroke="#292929" stroke-width="1.51"/><path d="M-80,1189L-116,1312L113,1331Z" fill="#222222" stroke="#222222" stroke-width="1.51"/><path d="M-274,372L-218,540L-95,290Z" fill="#2e2e2e" stroke="#2e2e2e" stroke-width="1.51"/><path d="M-294,805L-110,1007L-41,715Z" fill="#282828" stroke="#282828" stroke-width="1.51"/><path d="M-81,-315L-250,-225L-27,-104Z" fill="#353535" stroke="#353535" stroke-width="1.51"/><path d="M-218,540L-41,715L-4,539Z" fill="#2a2a2a" stroke="#2a2a2a" stroke-width="1.51"/><path d="M-95,290L-218,540L-4,539Z" fill="#2c2c2c" stroke="#2c2c2c" stroke-width="1.51"/><path d="M-294,805L-291,945L-110,1007Z" fill="#282828" stroke="#282828" stroke-width="1.51"/><path d="M-262,-134L-87,101L-27,-104Z" fill="#333333" stroke="#333333" stroke-width="1.51"/><path d="M-250,-225L-262,-134L-27,-104Z" fill="#353535" stroke="#353535" stroke-width="1.51"/><path d="M-218,540L-294,805L-41,715Z" fill="#2a2a2a" stroke="#2a2a2a" stroke-width="1.51"/><path d="M-302,152L-262,-134L-250,-225Z" fill="#353535" stroke="#353535" stroke-width="1.51"/><path d="M-302,152L-95,290L-87,101Z" fill="#303030" stroke="#303030" stroke-width="1.51"/><path d="M-262,-134L-302,152L-87,101Z" fill="#333333" stroke="#333333" stroke-width="1.51"/><path d="M-110,1007L-288,1143L-80,1189Z" fill="#252525" stroke="#252525" stroke-width="1.51"/><path d="M-288,1143L-116,1312L-80,1189Z" fill="#242424" stroke="#242424" stroke-width="1.51"/><path d="M-288,1143L-287,1317L-116,1312Z" fill="#242424" stroke="#242424" stroke-width="1.51"/><path d="M-302,152L-274,372L-95,290Z" fill="#303030" stroke="#303030" stroke-width="1.51"/><path d="M-291,945L-288,1143L-110,1007Z" fill="#262626" stroke="#262626" stroke-width="1.51"/><path d="M-274,372L-294,805L-218,540Z" fill="#2c2c2c" stroke="#2c2c2c" stroke-width="1.51"/><path d="M-302,152L-294,805L-274,372Z" fill="#2e2e2e" stroke="#2e2e2e" stroke-width="1.51"/><path d="M-291,945L-294,805L-287,1317Z" fill="#262626" stroke="#262626" stroke-width="1.51"/><path d="M-288,1143L-291,945L-287,1317Z" fill="#252525" stroke="#252525" stroke-width="1.51"/></svg>