<?xml version="1.0" encoding="UTF-8"?>
<svg width="458px" height="382px" viewBox="0 0 458 382" version="1.1" xmlns="http://www.w3.org/2000/svg" xmlns:xlink="http://www.w3.org/1999/xlink">
    <!-- Generator: Sketch 47.1 (45422) - http://www.bohemiancoding.com/sketch -->
    <title>Group</title>
    <desc>Created with Sketch.</desc>
    <defs></defs>
    <g id="Estimotes" stroke="none" stroke-width="1" fill="none" fill-rule="evenodd">
        <g id="Group">
            <path d="M0,52 L458,52 L458,352 L458,352 C458,368.568542 444.568542,382 428,382 L30,382 L30,382 C13.4314575,382 2.02906125e-15,368.568542 0,352 L0,52 Z" id="Rectangle" fill="#1A1A1A"></path>
            <path d="M30,0 L428,0 L428,-7.10542736e-15 C444.568542,-1.01490192e-14 458,13.4314575 458,30 L458,52 L0,52 L0,30 L0,30 C-2.02906125e-15,13.4314575 13.4314575,-4.06183548e-15 30,-7.10542736e-15 Z" id="Rectangle-Copy" fill="#808080"></path>
            <circle id="Oval" fill="#FF5B5B" cx="414.5" cy="26.5" r="12.5"></circle>
            <circle id="Oval-Copy" fill="#FFB500" cx="379.5" cy="26.5" r="12.5"></circle>
            <circle id="Oval-Copy-2" fill="#53CA69" cx="344.5" cy="26.5" r="12.5"></circle>
            <text id="&lt;/code&gt;" font-family="Hack-Bold, Hack" font-size="56" font-weight="bold" letter-spacing="5.60000038" fill="#EAEAEA">
                <tspan x="91.3980455" y="219">&lt;/code&gt;</tspan>
            </text>
        </g>
    </g>
</svg>